# xmcd CD database file
#
# Track frame offsets:
#	182
#	29830
#	53445
#	78590
#	107477
#	132515
#	162142
#
# Disc length: 2529 seconds
#
# Revision: 0
# Processed by: cddbd v1.5.2PL0 Copyright (c) Steve Scherf et al.
# Submitted via: CDex 1.70beta2
#
DISCID=5409df07
DTITLE=Eric Le LANN - Joue Piaf Et Trenet
DYEAR=1991
DGENRE=Jazz
TTITLE0=Que reste-til de nos amours
TTITLE1=Mon légionnaire
TTITLE2=Verlaine
TTITLE3=Mon homme
TTITLE4=Ménilmontant
TTITLE5=La mer
TTITLE6=Hymne à l'amour
EXTD=YEAR: 1991
EXTT0=
EXTT1=
EXTT2=
EXTT3=
EXTT4=
EXTT5=
EXTT6=
PLAYORDER=
